P3
32 8
255
70 180 70 60 160 60 70 180 70 60 160 60 70 180 70 60 160 60 70 180 70 60 160 60 70 180 70 60 160 60 70 180 70 60 160 60 70 180 70 60 160 60 70 180 70 60 160 60 120 90 60 140 110 80 120 90 60 140 110 80 120 90 60 140 110 80 120 90 60 140 110 80 130 130 130 160 160 160 130 130 130 160 160 160 130 130 130 160 160 160 130 130 130 160 160 160
60 160 60 70 180 70 60 160 60 70 180 70 60 160 60 70 180 70 60 160 60 70 180 70 60 160 60 70 180 70 60 160 60 70 180 70 60 160 60 70 180 70 60 160 60 70 180 70 140 110 80 120 90 60 140 110 80 120 90 60 140 110 80 120 90 60 140 110 80 120 90 60 160 160 160 130 130 130 160 160 160 130 130 130 160 160 160 130 130 130 160 160 160 130 130 130
70 180 70 60 160 60 70 180 70 60 160 60 70 180 70 60 160 60 70 180 70 60 160 60 120 90 60 120 90 60 120 90 60 120 90 60 120 90 60 120 90 60 120 90 60 120 90 60 120 90 60 140 110 80 120 90 60 140 110 80 120 90 60 140 110 80 120 90 60 140 110 80 130 130 130 160 160 160 130 130 130 160 160 160 130 130 130 160 160 160 130 130 130 160 160 160
60 160 60 70 180 70 60 160 60 70 180 70 60 160 60 70 180 70 60 160 60 70 180 70 120 90 60 120 90 60 120 90 60 120 90 60 120 90 60 120 90 60 120 90 60 120 90 60 140 110 80 120 90 60 140 110 80 120 90 60 140 110 80 120 90 60 140 110 80 120 90 60 160 160 160 130 130 130 160 160 160 130 130 130 160 160 160 130 130 130 160 160 160 130 130 130
70 180 70 60 160 60 70 180 70 60 160 60 70 180 70 60 160 60 70 180 70 60 160 60 120 90 60 120 90 60 120 90 60 120 90 60 120 90 60 120 90 60 120 90 60 120 90 60 120 90 60 140 110 80 120 90 60 140 110 80 120 90 60 140 110 80 120 90 60 140 110 80 130 130 130 160 160 160 130 130 130 160 160 160 130 130 130 160 160 160 130 130 130 160 160 160
60 160 60 70 180 70 60 160 60 70 180 70 60 160 60 70 180 70 60 160 60 70 180 70 120 90 60 120 90 60 120 90 60 120 90 60 120 90 60 120 90 60 120 90 60 120 90 60 140 110 80 120 90 60 140 110 80 120 90 60 140 110 80 120 90 60 140 110 80 120 90 60 160 160 160 130 130 130 160 160 160 130 130 130 160 160 160 130 130 130 160 160 160 130 130 130
70 180 70 60 160 60 70 180 70 60 160 60 70 180 70 60 160 60 70 180 70 60 160 60 120 90 60 120 90 60 120 90 60 120 90 60 120 90 60 120 90 60 120 90 60 120 90 60 120 90 60 140 110 80 120 90 60 140 110 80 120 90 60 140 110 80 120 90 60 140 110 80 130 130 130 160 160 160 130 130 130 160 160 160 130 130 130 160 160 160 130 130 130 160 160 160
60 160 60 70 180 70 60 160 60 70 180 70 60 160 60 70 180 70 60 160 60 70 180 70 120 90 60 120 90 60 120 90 60 120 90 60 120 90 60 120 90 60 120 90 60 120 90 60 140 110 80 120 90 60 140 110 80 120 90 60 140 110 80 120 90 60 140 110 80 120 90 60 160 160 160 130 130 130 160 160 160 130 130 130 160 160 160 130 130 130 160 160 160 130 130 130
